<svg xmlns="http://www.w3.org/2000/svg" viewBox="0 0 290 185">
    <rect x="136" y="145" width="18" height="42" fill="#3a3a3a" rx="2" />
    <rect x="55" y="8" width="180" height="118" rx="3" fill="#0d0d0d" stroke="#555" stroke-width="2.5" />
    <rect x="59" y="12" width="172" height="110" rx="2" fill="none" stroke="#2a2a2a" stroke-width="1" />
    <rect x="108" y="66" width="74" height="44" rx="2" fill="none" stroke="#777" stroke-width="2" />
    <rect x="132" y="126" width="26" height="9" fill="#555" rx="2" />
    <line x1="85" y1="134" x2="132" y2="126" stroke="#555" stroke-width="4" stroke-linecap="round" />
    <line x1="205" y1="134" x2="158" y2="126" stroke="#555" stroke-width="4" stroke-linecap="round" />
    <line x1="85" y1="136" x2="205" y2="136" stroke="#d0d0d0" stroke-width="7" stroke-linecap="round" />
    <line x1="88" y1="130" x2="202" y2="130" stroke="#888" stroke-width="3" stroke-linecap="round" />
    <g id="net" stroke="rgba(200,200,200,0.5)" stroke-width="1.2" fill="none">
        <path d="M90,136 Q90,158 145,178" />
        <path d="M103,136 Q105,163 145,178" />
        <path d="M116,136 Q119,166 145,178" />
        <path d="M129,136 Q132,168 145,178" />
        <path d="M145,136 L145,178" />
        <path d="M158,136 Q155,168 145,178" />
        <path d="M171,136 Q167,166 145,178" />
        <path d="M184,136 Q179,163 145,178" />
        <path d="M197,136 Q192,158 145,178" />
        <path d="M93,146 Q145,150 197,146" />
        <path d="M97,157 Q145,162 193,157" />
        <path d="M104,167 Q145,172 186,167" />
        <path d="M115,175 Q145,178 175,175" />
    </g>
</svg>
